<?xml version="1.0" encoding="utf-8"?>
<!-- Generator: Adobe Illustrator 19.2.1, SVG Export Plug-In . SVG Version: 6.00 Build 0)  -->
<svg version="1.1" id="Layer_1" xmlns="http://www.w3.org/2000/svg" xmlns:xlink="http://www.w3.org/1999/xlink" x="0px" y="0px"
	 viewBox="0 0 735.1 273" style="enable-background:new 0 0 735.1 273;" xml:space="preserve">
<g>
	<path d="M151.2,175.8V97.3h24.1v26.6h24V97.3h24.1v78.5h-24.1v-31h-24v31H151.2z"/>
	<path d="M269.8,97.3c9,0,16.2,2.4,21.5,7.2c5.5,4.8,8.2,10.9,8.2,18.4c0,7.4-2.7,13.6-8.2,18.4c-5.4,4.8-12.6,7.2-21.5,7.2h-12
		v27.4h-24.1V97.3H269.8z M266.5,130.9c4.9,0,8.3-2.9,8.3-7.1s-3.5-7-8.3-7h-8.8v14H266.5z"/>
	<path d="M315.5,166c-8.5-7.6-12.8-17.5-12.8-29.5s4.3-21.9,12.7-29.4c8.4-7.6,19.2-11.4,32.1-11.4c7.7,0,14.4,1.3,19.9,4.2v22.8
		c-6.4-3.5-12.8-5.2-19.2-5.2c-5.9,0-10.9,1.8-14.8,5.5c-3.9,3.6-5.8,8.1-5.8,13.6c0,5.6,2,10.2,6.1,13.8c4,3.5,9.2,5.3,15.5,5.3
		c7.7,0,14.1-1.9,19.4-5.6v23.1c-5.4,2.8-12.3,4.3-20.8,4.3C334.8,177.3,324,173.5,315.5,166z"/>
	<path d="M379.9,175.8l12.5-78.5h16.2l-4.7,29.4h35.4l4.7-29.4h16l-12.5,78.5h-16l5.5-34.4h-35.4l-5.5,34.4H379.9z"/>
	<path d="M525.9,97.3h16.3l-7.5,47.4c-1.7,10.4-5.8,18.5-12.7,24.2c-6.8,5.6-14.9,8.4-24.2,8.4c-8.6,0-16-2.6-22-7.6
		c-5.9-5-9-12.1-9-21.2c0-2.6,0.2-5.4,0.8-8.5l6.7-42.7h16.3l-7.1,43.7c-0.3,2.1-0.6,4-0.6,5.8c0,9.8,6.1,15.4,16.3,15.4
		s17.4-5.9,19.3-18.4L525.9,97.3z"/>
	<path d="M615.4,150.5c0,7.7-2.8,13.8-8.5,18.4c-5.6,4.6-12.8,6.8-21.4,6.8h-41.1l12.3-78.5H592c13.1,0,21.9,6.6,21.9,17.5
		c0,8-4.3,14.7-11.8,17.9C609.6,134.4,615.4,141,615.4,150.5z M584.6,161.9c7.6,0,13.5-4.3,13.5-11.6c0-5.5-4.2-9-10.9-9h-21.1
		l-3.3,20.5H584.6z M586.5,128c6.4,0,11.4-3.5,11.4-9.8c0-4.6-3.4-7.5-9.2-7.5h-17.8l-2.7,17.3H586.5z"/>
</g>
</svg>
