<?xml version="1.0" encoding="utf-8"?>
<!-- Generator: Adobe Illustrator 22.0.0, SVG Export Plug-In . SVG Version: 6.00 Build 0)  -->
<svg version="1.1" id="Layer_1" xmlns="http://www.w3.org/2000/svg" xmlns:xlink="http://www.w3.org/1999/xlink" x="0px" y="0px"
	 width="464.2px" height="81.8px" viewBox="0 0 464.2 81.8" style="enable-background:new 0 0 464.2 81.8;" xml:space="preserve">
<style type="text/css">
	.st0{fill:#F40303;}
</style>
<g>
	<path class="st0" d="M0,80.1V1.6h24.1v26.6h24V1.6h24.1v78.5H48.1v-31h-24v31H0z"/>
	<path class="st0" d="M118.6,1.6c9,0,16.2,2.4,21.5,7.2c5.5,4.8,8.2,10.9,8.2,18.4c0,7.4-2.7,13.6-8.2,18.4
		c-5.4,4.8-12.6,7.2-21.5,7.2h-12v27.4H82.5V1.6H118.6z M115.3,35.2c4.9,0,8.3-2.9,8.3-7.1s-3.5-7-8.3-7h-8.8v14h8.8V35.2z"/>
	<path class="st0" d="M164.3,70.3c-8.5-7.6-12.8-17.5-12.8-29.5s4.3-21.9,12.7-29.4C172.6,3.8,183.4,0,196.3,0
		c7.7,0,14.4,1.3,19.9,4.2V27c-6.4-3.5-12.8-5.2-19.2-5.2c-5.9,0-10.9,1.8-14.8,5.5c-3.9,3.6-5.8,8.1-5.8,13.6
		c0,5.6,2,10.2,6.1,13.8c4,3.5,9.2,5.3,15.5,5.3c7.7,0,14.1-1.9,19.4-5.6v23.1c-5.4,2.8-12.3,4.3-20.8,4.3
		C183.6,81.6,172.8,77.8,164.3,70.3z"/>
	<path class="st0" d="M228.7,80.1l12.5-78.5h16.2L252.7,31h35.4l4.7-29.4h16l-12.5,78.5h-16l5.5-34.4h-35.4l-5.5,34.4H228.7
		L228.7,80.1z"/>
	<path class="st0" d="M374.7,1.6H391L383.5,49c-1.7,10.4-5.8,18.5-12.7,24.2c-6.8,5.6-14.9,8.4-24.2,8.4c-8.6,0-16-2.6-22-7.6
		c-5.9-5-9-12.1-9-21.2c0-2.6,0.2-5.4,0.8-8.5l6.7-42.7h16.3l-7.1,43.7c-0.3,2.1-0.6,4-0.6,5.8c0,9.8,6.1,15.4,16.3,15.4
		c10.2,0,17.4-5.9,19.3-18.4L374.7,1.6z"/>
	<path class="st0" d="M464.2,54.8c0,7.7-2.8,13.8-8.5,18.4c-5.6,4.6-12.8,6.8-21.4,6.8h-41.1l12.3-78.5h35.3
		c13.1,0,21.9,6.6,21.9,17.5c0,8-4.3,14.7-11.8,17.9C458.4,38.7,464.2,45.3,464.2,54.8z M433.4,66.2c7.6,0,13.5-4.3,13.5-11.6
		c0-5.5-4.2-9-10.9-9h-21.1l-3.3,20.5L433.4,66.2L433.4,66.2z M435.3,32.3c6.4,0,11.4-3.5,11.4-9.8c0-4.6-3.4-7.5-9.2-7.5h-17.8
		L417,32.3H435.3z"/>
</g>
</svg>
